# xmcd CD database file
#
# Track frame offsets:
#	150
#	27723
#	52307
#	70004
#	92483
#	112094
#	131262
#	151365
#	177295
#	200823
#	225764
#
# Disc length: 3242 seconds
#
# Revision: 2
# Processed by: cddbd v1.5.2PL0 Copyright (c) Steve Scherf et al.
# Submitted via: CDex 1.70beta2
#
DISCID=940ca80b
DTITLE=Mohamed Rouane - Rêve
DYEAR=2006
DGENRE=Jazz
TTITLE0=Rêve
TTITLE1=Tinhinane
TTITLE2=Casbah
TTITLE3=Evasion
TTITLE4=Oriental Jazz
TTITLE5=Hekma
TTITLE6=L'âme
TTITLE7=Kortoba
TTITLE8=Sabrinel
TTITLE9=Ilamane
TTITLE10=Balade
EXTD=YEAR: 2006
EXTT0=
EXTT1=
EXTT2=
EXTT3=
EXTT4=
EXTT5=
EXTT6=
EXTT7=
EXTT8=
EXTT9=
EXTT10=
PLAYORDER=
